<?xml version="1.0" standalone="yes"?>
<svg xmlns="http://www.w3.org/2000/svg" width="2048" height="2048">
<path style="fill:none; stroke:none;" d="M0 0L0 2048L2048 2048L2048 0L0 0z"/>
<path style="fill:#89c551; stroke:none;" d="M901 149.428C891.107 150.846 881.731 155.603 872 156.815C858.949 158.44 845.164 157.187 832 158.089C803.547 160.04 774.23 165.564 747 174.026C687.44 192.534 637.21 227.797 592 269.911C545.401 313.317 505.983 365.03 494.424 429C488.827 459.979 494.482 492.24 524 509.127C553.265 525.869 590.568 530.209 623 537.651C677.147 550.077 732.632 565.053 780 595.053C820.858 620.931 867.025 671.035 842.215 723C826.466 755.986 789.282 776.248 756 787.333C718.644 799.776 678.995 803.416 640 806.089C598.435 808.939 556.663 809.864 515 808.039C387.52 802.457 241.594 807.118 141 897.17C120.601 915.431 102.581 935.43 87.0255 958C67.3314 986.574 53.2686 1018.19 42.3333 1051C30.2977 1087.11 22.9171 1125.97 21.9853 1164C20.4762 1225.6 27.2793 1287.22 57.8619 1342C93.6356 1406.08 162.971 1428 232 1428C344.426 1428 448.31 1391.91 555 1361.29C596.723 1349.31 638.781 1341.87 682 1338.91C698.121 1337.81 722.657 1336.07 735.891 1347.53C748.653 1358.58 737.677 1391.46 734.116 1405C719.703 1459.82 695.323 1511.59 679.424 1566C666.793 1609.23 657.893 1656.04 665.435 1701C668.191 1717.43 673.128 1733.77 679.862 1749C727.858 1857.56 864.847 1892.26 974 1881.83C1127.11 1867.2 1278.43 1768.88 1299.72 1607C1310.13 1527.84 1281.81 1446.01 1310.05 1369C1318.13 1346.96 1331.79 1327.01 1346.61 1309C1383.75 1263.89 1433.65 1231.08 1484 1202.58C1566.84 1155.67 1655.81 1120.25 1743 1082.42C1826.62 1046.15 1919.59 1006.81 1959.14 918C1994.09 839.533 1985 757.136 1956.05 678C1938.46 629.893 1915.18 585.096 1885.98 543C1863.21 510.19 1836.2 479.41 1806 453.282C1649.86 318.178 1437.69 323.177 1251 262.33C1224.24 253.607 1196.25 245.815 1171 233.191C1147.05 221.218 1126.17 203.695 1101 194.065C1069.04 181.838 1034.73 180.672 1002 171.576C967.906 162.098 937.843 144.15 901 149.428z"/>
</svg>
