<?xml version="1.0" standalone="yes"?>
<svg xmlns="http://www.w3.org/2000/svg" width="2048" height="2048">
<path style="fill:none; stroke:none;" d="M0 0L0 2048L2048 2048L2048 0L0 0z"/>
<path style="fill:#89c551; stroke:none;" d="M1675 169.424C1656.78 171.816 1638.3 171.587 1620 174.424C1547.97 185.595 1474.34 209.472 1420 260.089C1370.81 305.903 1341.5 367.888 1311.75 427C1259.95 529.942 1203.44 645.411 1101 707C1053.15 735.766 1001.89 738.007 948 729.08C849.501 712.764 767.963 654.822 673 628.424C583.195 603.461 482.477 608.385 398 649.259C345.56 674.631 299.622 712.562 260.09 755C233.297 783.763 209.157 816 189.424 850C180.773 864.906 174.763 881.025 166.485 896C156.524 914.02 144.143 934.375 130.679 949.961C101.824 983.362 56.6747 1017.41 60.0895 1067C61.1795 1082.83 68.0865 1098.1 75.2585 1112C87.8306 1136.36 104.171 1159.43 125 1177.42C148.817 1198 174.35 1216.39 204 1227.57C243.055 1242.3 285.152 1240.95 326 1238.09C419.078 1231.57 507.139 1196.45 600 1190.09C635.936 1187.63 673.267 1194.95 708 1203.53C740.229 1211.48 772.484 1220.21 802 1235.78C840.417 1256.05 868.552 1288.32 892.333 1324C933.004 1385.01 956.886 1454.75 987.309 1521C1013.04 1577.03 1044.65 1631.72 1088.04 1675.99C1166.58 1756.11 1280.86 1802.81 1393 1783.92C1423.8 1778.73 1453.21 1769.54 1481 1755.26C1531.53 1729.29 1566.29 1684.93 1591.25 1635C1662.99 1491.49 1624.51 1314.05 1562.14 1174C1540.12 1124.56 1511.93 1078.35 1487.75 1030C1478.44 1011.38 1462.42 984.686 1465.43 963C1468.33 942.065 1486.93 923.574 1500.96 909.004C1534.75 873.914 1573.01 843.54 1609.04 810.819C1655.06 769.025 1699.06 725.58 1735.58 675C1799.29 586.756 1839.69 481.192 1857.25 374C1864.15 331.84 1869.63 281.966 1850.68 242C1827.17 192.402 1768.11 175.842 1718 170.831C1704.18 169.449 1688.85 167.607 1675 169.424z"/>
</svg>
