<?xml version="1.0" standalone="yes"?>
<svg xmlns="http://www.w3.org/2000/svg" width="2048" height="2048">
<path style="fill:none; stroke:none;" d="M0 0L0 2048L2048 2048L2048 0L0 0z"/>
<path style="fill:#89c551; stroke:none;" d="M1465 59.4244C1443.54 62.2413 1422.26 63.7275 1401 68.4244C1336.35 82.7047 1274.7 112.092 1223 153.449C1185.59 183.376 1151.04 217.461 1116 250.089C1104.06 261.21 1092.41 277.055 1078.99 286.034C1055.56 301.703 1023.33 310.645 996 316.199C918.028 332.043 832.671 321.419 761 286.741C716.402 265.163 675.533 236.856 632 213.309C592.04 191.694 549.553 173.347 506 160.28C465.971 148.271 423.781 139.426 382 146.435C305.997 159.185 235.549 213.549 195.425 278C172.155 315.379 158.24 357.544 147.627 400C136.358 445.074 124.583 498.438 149.285 541C172.471 580.95 230.365 593.296 273 589.17C318.226 584.793 360.5 568.87 403 553.692C453.396 535.694 503.629 516.992 556 505.424C591.605 497.56 631.869 489.311 668 498.13C683.029 501.798 701.216 509.568 705.521 526C710.372 544.517 700.524 563.438 689.845 578C666.418 609.945 632.731 635.362 599 655.6C506.552 711.067 394.97 719.247 302 772.427C261.838 795.401 226.648 828.237 201.344 867C169.482 915.811 140.395 987.137 157.291 1046C165.191 1073.52 183.758 1103.81 215 1106.83C248.943 1110.11 284.104 1088.94 312 1072.2C371.624 1036.43 426.14 992.894 487 959.139C512.38 945.062 540.104 933.896 569 929.87C581.319 928.153 595.772 927.668 606.999 933.905C626.304 944.629 617.139 978.315 611.974 995C594.888 1050.2 560.059 1098.9 530.6 1148C497.996 1202.34 468.161 1257.73 443.15 1316C425.777 1356.48 409.753 1398.38 402.435 1442C391.132 1509.37 397.123 1585.16 419.004 1650C428.982 1679.57 444.408 1707.12 461.667 1733C504.254 1796.85 559.234 1857.65 643 1851.91C726.589 1846.19 781.887 1775.8 813.861 1704C867.669 1583.18 863.667 1451.76 892.349 1325C907.261 1259.1 938.66 1189.42 1006 1163.2C1043.45 1148.62 1079.02 1164.55 1100.67 1197C1128.66 1238.98 1139.07 1291.78 1151.13 1340C1176.76 1442.55 1197.87 1556.18 1268.43 1639C1285.28 1658.78 1305.04 1675.77 1327 1689.68C1343.85 1700.35 1362.02 1708.59 1381 1714.66C1496.63 1751.6 1618.76 1679.88 1686.63 1589C1761.14 1489.21 1780.04 1363.01 1727.69 1249C1704.82 1199.19 1670.36 1156.37 1633.83 1116C1592.86 1070.72 1545.57 1031.18 1507.79 983C1483.2 951.642 1462.29 916.211 1457.29 876C1447.48 797.195 1505.98 728.7 1555.91 675C1574.4 655.121 1593.28 635.619 1612.04 616C1699.04 525.019 1811.75 413.448 1789.25 275C1786.39 257.441 1781.58 240.364 1774.57 224C1764.26 199.9 1748.44 180.439 1731.29 161C1703.9 129.957 1667.73 107.069 1631 88.7531C1582.57 64.601 1519 52.3347 1465 59.4244z"/>
</svg>
