<?xml version="1.0" standalone="yes"?>
<svg xmlns="http://www.w3.org/2000/svg" width="2048" height="2048">
<path style="fill:none; stroke:none;" d="M0 0L0 2048L2048 2048L2048 0L0 0z"/>
<path style="fill:#89c551; stroke:none;" d="M577 47.4244C558.812 49.8123 540.282 49.8777 522 52.2816C449.75 61.7817 370.641 77.7754 309 118.667C265.305 147.654 228.686 192.684 250.204 247C255.141 259.463 262.281 272.157 270.152 283C314.516 344.112 385.888 365.676 445 407.424C476.309 429.537 497.362 455.409 479.691 494C445.878 567.848 357.286 595.572 299 645.272C209.617 721.487 151.875 828.657 136.718 945C128.988 1004.34 131.235 1065.24 162.452 1118C171.498 1133.29 182.625 1147.94 196 1159.71C209.997 1172.04 225.152 1183.58 242 1191.74C308.67 1224.02 382.475 1208.13 453 1205.04C501.942 1202.9 550.444 1207.24 598 1219.13C631.55 1227.51 672.229 1239.44 696.961 1265C713.664 1282.27 714.475 1306.44 710.196 1329C702.547 1369.33 684.415 1406.52 668.421 1444C631.149 1531.35 605.147 1626.76 631.86 1721C644.999 1767.36 671.652 1812.88 715 1836.69C757.046 1859.78 806.98 1856.63 852 1845.37C899.869 1833.41 944.629 1812.62 985 1784.28C1025.1 1756.13 1060.32 1721.13 1097 1688.84C1128.98 1660.69 1162.8 1632.17 1201 1612.76C1210.36 1608 1220.04 1603.99 1230 1600.67C1233.29 1599.57 1238.26 1596.98 1241.79 1597.9C1247.88 1599.49 1253.07 1611.5 1257.17 1615.99C1262.97 1622.33 1270.04 1627.3 1275.54 1634C1285.28 1645.88 1291.35 1660.04 1297.42 1674C1318.47 1722.39 1340.73 1773.52 1383 1807.2C1406.74 1826.12 1435.17 1838.75 1466 1832.55C1488.79 1827.97 1508.34 1815.82 1526 1801.08C1577.45 1758.13 1626.03 1676.39 1594.22 1609C1581.35 1581.74 1559.74 1561.3 1540.16 1539C1534.68 1532.76 1521.15 1518.31 1523.83 1509C1527.16 1497.45 1544.14 1485.79 1553 1478.41C1582.35 1453.99 1615.9 1434.54 1649 1415.72C1740.78 1363.54 1854.37 1315.67 1881.87 1203C1885.62 1187.64 1888 1171.82 1888 1156C1888 1135.25 1886.29 1115.11 1880.85 1095C1842.15 951.933 1671.57 908.598 1543 894.834C1515.61 891.901 1487.55 889.011 1460 889C1413.18 888.982 1363.3 890.771 1317 883.246C1301.97 880.803 1276.14 875.043 1276.37 855C1276.47 846.349 1286.07 836.271 1291.25 830C1307.79 809.976 1327.08 792.989 1347 776.414C1423.53 712.722 1507.81 658.99 1580 589.961C1640.2 532.396 1701.17 461.74 1712.72 376C1719.46 325.96 1712.72 253.04 1653 239.665C1630.32 234.587 1605.1 239.073 1583 244.884C1525.37 260.037 1474.47 296.319 1429 333.576C1345.23 402.212 1273.69 484.57 1189 551.996C1180.17 559.025 1171.18 565.86 1162 572.421C1119.26 602.966 1054.35 640.939 1002 609.985C974.919 593.974 960.91 565.197 952.579 536C937.264 482.332 935.96 425.073 928.718 370C919.245 297.957 901.843 223.667 859.974 163C808.034 87.74 720.004 51.8639 631 47.9607C613.388 47.1884 594.591 45.115 577 47.4244z"/>
</svg>
