<svg fill="#ffffff" xmlns="http://www.w3.org/2000/svg" viewBox="0 0 140.6 81.46"><title>sticky</title><g id="Layer_2" data-name="Layer 2"><path d="M138.54,41.54q-.22,7.8,0,15.61.09,4,.28,7.92c.09,1.82-.22,4.51,1.07,6s3.7.94,5-.42c1.55-1.57,1.86-3.83,1.89-5.93.06-5.13,0-10.27,0-15.4,0-2.53.39-5.51-.72-7.88a4.44,4.44,0,0,0-5.37-2.52c-1.79.67-1,3.58.8,2.89,2.38-.89,2.28,3.28,2.28,4.57q0,3.68,0,7.35l0,7.85c0,2,.5,4.93-.78,6.68-.08.1-.86.9-.84.9-.15,0-.18-.77-.19-.88-.12-1.15-.13-2.32-.19-3.47q-.19-4-.28-7.92-.16-7.68.06-15.36c.05-1.94-2.95-1.93-3,0Z" transform="translate(-81.81 -7.18)"/><path d="M138.93,32.36c-1.49.27-2.74-1.12-3.31-2.34a17.34,17.34,0,0,1-1.1-5c-.13-1-.25-2-.35-3-.09-.82-.46-2.15-.12-2.93.46-1,2.52-1.09,3.46-1.23,3.31-.47,7.28-.85,10,1.58a10.15,10.15,0,0,1,2.59,3.89c.55,1.42,1.17,3.34.44,4.81s-3,2.37-4.54,2.94a22.19,22.19,0,0,1-6.29,1.37c-1.91.13-1.93,3.13,0,3a24.61,24.61,0,0,0,7.4-1.6c2-.8,4.3-1.78,5.64-3.61,2.67-3.66.15-9.5-2.6-12.41-3.46-3.65-8.47-3.55-13.08-2.91-1.92.27-4.08.58-5.31,2.26a4.53,4.53,0,0,0-.72,3.17c.1,1.37.27,2.74.44,4.1.33,2.61.53,5.49,2,7.78a6.18,6.18,0,0,0,6.32,3c1.9-.34,1.09-3.23-.8-2.89Z" transform="translate(-81.81 -7.18)"/><path d="M135,28.13c.28.11-.29-.15,0,0l.22.13a1.37,1.37,0,0,0,.2.13c-.19-.15-.23-.18-.11-.08l.06.06c.12.11.23.23.34.35s-.18-.26,0,0l.13.21c.09.14.16.3.24.45s-.11-.31,0,0l.09.24a4.1,4.1,0,0,1,.14.5l.06.25c0,.06.07.43,0,.14s0,0,0,.1,0,.19,0,.28,0,.41,0,.62a3.8,3.8,0,0,0,.48,1.69,2.86,2.86,0,0,0,1.31,1.12,2.38,2.38,0,0,0,2-.1,1.51,1.51,0,0,0,.54-2.05,1.54,1.54,0,0,0-2.05-.54.65.65,0,0,1,.33-.11c.15,0,.17,0,0,0,.25,0,.32,0,.2,0s-.05,0,.17.08l-.07,0c-.13-.08-.1,0,.1.09,0,0-.21-.26-.05,0s0-.06,0-.06c.08.21.09.23,0,.08l0-.1c0-.15,0-.33,0,0,0-.09,0-.21,0-.31a9.46,9.46,0,0,0-.33-2.3,6.36,6.36,0,0,0-1.17-2.21,4.59,4.59,0,0,0-2-1.41A1.51,1.51,0,0,0,134,26.29a1.54,1.54,0,0,0,1,1.84Z" transform="translate(-81.81 -7.18)"/><path d="M146.6,22.87a1.08,1.08,0,0,1,.06.2s0-.32,0-.14,0,.29,0,.37c.09-.14,0-.24,0-.07a.94.94,0,0,1,0,.16c0,.17-.08.33-.12.49a4.21,4.21,0,0,0-.11,2.11,2.86,2.86,0,0,0,.62,1.15c.1.12.2.22.31.33l.17.18c.15.15.07,0,0,0l.06.11-.06-.13s.08.25,0,0,0,0,0,.11a1.2,1.2,0,0,1,0,.19c0,.29,0,.06,0,0,0,.09,0,.18-.05.26s-.09.35-.14.52a1.69,1.69,0,0,0,.36,1.78,2.13,2.13,0,0,0,1.09.64,2.7,2.7,0,0,0,2.43-.64c1.18-1.09,1.13-3,1.06-4.5a17,17,0,0,0-1.07-5.17,1.54,1.54,0,0,0-1.84-1.05,1.51,1.51,0,0,0-1.05,1.85A15.35,15.35,0,0,1,149,24c0,.19.08.39.11.59s0,.2,0,.3,0,.21,0,0c.05.42.09.85.1,1.27s0,.81,0,1.21c0,.19,0,.38,0,.56s0-.23,0,0,0,.16-.05.24-.08.3,0,.12,0,.07-.06.1.12-.15,0,0,.22-.17.06-.07.26-.1.08,0,.3,0,.11,0-.07,0,.06,0a.29.29,0,0,1,.2.05.82.82,0,0,1,.36.33l.15,1.15a5.51,5.51,0,0,0,.35-2.31A3.08,3.08,0,0,0,150,26a4.58,4.58,0,0,0-.48-.59l-.18-.18c0-.05-.2-.29-.13-.14s.06.07,0,0,0-.06,0,0,.05.11,0,0,0-.06,0,0,0,.05,0,0,0-.28,0-.06,0,0,0-.07a1.42,1.42,0,0,0,0-.22c0-.14.08-.29.11-.43a4.06,4.06,0,0,0,.06-2.34,1.5,1.5,0,1,0-2.89.8Z" transform="translate(-81.81 -7.18)"/><path d="M136.94,17.53a6.31,6.31,0,0,0-.32,1.43,3.15,3.15,0,0,0,.29,1.57,2.65,2.65,0,0,0,1,1.1,2.29,2.29,0,0,0,1.73.3,4.26,4.26,0,0,0,2.1-1.48,12.41,12.41,0,0,0,1.44-1.87,1.53,1.53,0,0,0-.23-1.82,1.78,1.78,0,0,0-.66-.39,1.51,1.51,0,0,0-1.16.15,1.9,1.9,0,0,1-.37.2l.36-.15a2.38,2.38,0,0,1-.58.16l.4-.05a2.48,2.48,0,0,1-.61,0l.4,0-.35-.07a1.5,1.5,0,1,0-.8,2.89,3.75,3.75,0,0,0,3.06-.45l-2-2.05a10.45,10.45,0,0,1-.61.87l.24-.3a9.86,9.86,0,0,1-1.45,1.51l.31-.23a2,2,0,0,1-.37.22l.36-.15a1,1,0,0,1-.23.06l.4-.05H139l.4.05-.19-.05.36.15-.22-.13.3.24a1.52,1.52,0,0,1-.22-.22l.23.3a1.69,1.69,0,0,1-.19-.32l.15.36a1.87,1.87,0,0,1-.08-.32l.05.4a2.62,2.62,0,0,1,0-.56l0,.4a6.45,6.45,0,0,1,.25-1,1.5,1.5,0,0,0-2.89-.8Z" transform="translate(-81.81 -7.18)"/><path d="M134.42,28A7.22,7.22,0,0,0,138,34.49a1.5,1.5,0,1,0,1.52-2.59,5.84,5.84,0,0,1-.53-.33c-.32-.23.19.16,0,0l-.24-.21a6.14,6.14,0,0,1-.43-.45c-.08-.1-.25-.39,0,0,0-.08-.12-.17-.18-.25a4.74,4.74,0,0,1-.31-.54,2.44,2.44,0,0,1-.14-.28c-.12-.23.14.38,0,0a5.57,5.57,0,0,1-.31-1.2l.05.4a6.58,6.58,0,0,1,0-1.09,1.51,1.51,0,0,0-1.5-1.5,1.54,1.54,0,0,0-1.5,1.5Z" transform="translate(-81.81 -7.18)"/><path d="M146.75,24.67a2.78,2.78,0,0,0-1.39,1.83,8.32,8.32,0,0,0-.18,1.13s-.09.46,0,.18c-.06.26.06,0-.08.24s-.11.05,0,0c.3-.09,1.07,0,1,.19a4.42,4.42,0,0,0-.29-.71,5.79,5.79,0,0,1-.31-1.08,3.19,3.19,0,0,1,0-.62.72.72,0,0,1,.26-.46,3.47,3.47,0,0,1,.68-.45,7.8,7.8,0,0,0,1.87-1.24c1.16-1.19,1.6-3.17.31-4.44l-1.82,2.36a1.66,1.66,0,0,1,.86.62c-.13-.15,0,0,.07.1l.16.26c.06.11.11.22.16.33-.06-.15,0,0,0,.06a9.33,9.33,0,0,1,.36,1.38c0,.13,0,.26.07.39,0,.29,0-.34,0,.16q0,.36.06.72a3.17,3.17,0,0,1,0,1.34,5.11,5.11,0,0,1-1.07,1.11l-3,2.9c-1.4,1.33.72,3.45,2.12,2.12,1.19-1.14,2.41-2.27,3.58-3.42a4.71,4.71,0,0,0,1.32-2,6.32,6.32,0,0,0,.09-2.21c-.18-2.42-.8-5.35-3.26-6.46a1.52,1.52,0,0,0-1.93.39,1.51,1.51,0,0,0,.11,2c.18.19.16.12-.07-.21,0,.15,0,.17,0,.06a.23.23,0,0,1,0-.18,1.29,1.29,0,0,1-.08.28c.09-.22-.12.18-.12.19.12-.17-.14.14-.18.17.15-.14-.3.19-.37.23l-.46.26a8.86,8.86,0,0,0-.9.53,4.39,4.39,0,0,0-1.6,5.1,6.28,6.28,0,0,0,1.14,2.47,2.2,2.2,0,0,0,2.79.34,3.35,3.35,0,0,0,1.42-2.35c0-.21,0-.42.07-.63,0,.26,0-.14,0-.19a2.29,2.29,0,0,1,.08-.28l-.05.1c.09-.15.08-.15,0,0s-.12.11,0,0a1.5,1.5,0,1,0-1.51-2.59Z" transform="translate(-81.81 -7.18)"/><path d="M132.21,22.77c-1.67.81-3.59.76-4.72,2.49a3,3,0,0,0,.68,4.21c1.49,1.11,3.76,1.32,5.56,1.4a25,25,0,0,0,6-.56c6.38-1.27,14.44-3.4,17.9-9.47a1.52,1.52,0,0,0-.9-2.21,13.25,13.25,0,0,0-7.37.65c-1.77.71-1,3.61.8,2.89a10.36,10.36,0,0,1,5.77-.65l-.89-2.2c-2.53,4.44-7.94,6-12.54,7.23a28,28,0,0,1-9,1.31c-.55,0-3.65-.32-3.51-.94s1.29-.71,1.66-.81a11.53,11.53,0,0,0,2.06-.75c1.74-.84.22-3.43-1.51-2.59Z" transform="translate(-81.81 -7.18)"/><path d="M164.55,52c1.38,0,3.73.53,4.84-.52s.85-3.39.68-4.7a7.47,7.47,0,0,0-5.59-6.55,9,9,0,0,0-8.33,2.29,13.87,13.87,0,0,0-4.06,8.68c-.73,6,.19,14.16,6.55,16.72,2.87,1.16,6.76,2.1,9-.61,2-2.48,3.72-6.66,2.46-9.82a4.32,4.32,0,0,0-3.82-2.81c-1.76,0-2.73,1.27-4,2.24-1.75,1.32-2.47-1.23-2.18-2.58.08-.37,1.65-4.28,2.3-3.37,1.12,1.56,3.72.06,2.59-1.51-1.61-2.26-4.56-1.73-6.09.33s-2.65,5.53-1.33,8a4.23,4.23,0,0,0,6.27,1.67c.66-.46,1.59-1.83,2.45-1.79,1.59.08,1.25,2.63,1,3.6a10.14,10.14,0,0,1-1.8,3.93c-1,1.29-2.27.83-3.69.53a7.35,7.35,0,0,1-6-5,21.3,21.3,0,0,1-.86-8.21,11.55,11.55,0,0,1,3-7.62c1.92-1.9,5.15-2.74,7.46-.95a5,5,0,0,1,1.69,4c0,.27,0,.54,0,.8s0,.53-.07.79c.85-.38,1-.55.5-.51a11,11,0,0,0-3,0,1.5,1.5,0,0,0,0,3Z" transform="translate(-81.81 -7.18)"/><path d="M179,36.5q0-6.12,0-12.23V21.32a3.93,3.93,0,0,1,0-1.13c.12-.15.35-.12.59-.13,2.09-.08,4.2,0,6.29,0l-1.5-1.5-.33,17.5a1.51,1.51,0,0,0,2.8.76A147.26,147.26,0,0,1,205.72,9.74l-2.35-.3,2.82,4.72c.92,1.54,2,3.07,2.79,4.69.48,1,.07,1.42-.55,2.23s-1,1.32-1.57,2c-1.11,1.36-2.24,2.71-3.38,4a174.28,174.28,0,0,1-14.7,15.07,1.51,1.51,0,0,0-.39,1.46,45.61,45.61,0,0,0,4.52,10l5.77,10.47L210.23,85l.9-2.21a39.17,39.17,0,0,1-14.61,2.51l1.3.74c-4.55-9.79-7.06-20.35-9.56-30.81-.42-1.77-2.76-1.17-2.94.4l-2.08,17.92-1.05,9.08-.23,2a4.27,4.27,0,0,1-.11,1c-.28.38.15.06-.25.06a29.53,29.53,0,0,1-4.25-.66c-.93-.15-2.55,0-2.64-1.19a18.88,18.88,0,0,1,.49-3.73c.38-2.73.71-5.46,1-8.19.62-5.59,1.09-11.2,1.52-16.81.46-6.19.86-12.39,1.27-18.59.13-1.93-2.87-1.92-3,0-.84,12.56-1.58,25.14-3,37.65-.35,3-.9,6-1.2,9a4.28,4.28,0,0,0,.89,3.33c1,1.07,2.33,1.18,3.67,1.4s2.89.47,4.34.68,2.75.18,3.6-1c.75-1,.67-2.66.82-3.88l.59-5.15,2.65-22.83-2.95.4c2.56,10.73,5.19,21.48,9.86,31.53a1.48,1.48,0,0,0,1.29.74,41.71,41.71,0,0,0,15.41-2.61,1.54,1.54,0,0,0,.9-2.21L201.51,63,196,53c-1.81-3.28-3.71-6.53-4.7-10.17l-.38,1.46a176,176,0,0,0,16.18-16.82c1.23-1.46,2.44-2.94,3.61-4.44s1.95-2.74,1.4-4.54-2-3.58-3-5.22L206,7.93a1.51,1.51,0,0,0-2.36-.31,151.27,151.27,0,0,0-19.34,27.67l2.8.76.33-17.5a1.52,1.52,0,0,0-1.5-1.5H182a18.47,18.47,0,0,0-3.49.09c-2.14.41-2.55,2.25-2.55,4.17,0,5.06,0,10.12,0,15.18a1.5,1.5,0,0,0,3,0Z" transform="translate(-81.81 -7.18)"/><path d="M198.9,45.13a38.26,38.26,0,0,0,8.18,8c.66.49,1.28.89,1.36,1.77a11.77,11.77,0,0,1-.42,3.11c-.36,2.06-.92,4.17-1.09,6.25s1.72,2.53,3.47,2.77c1.6.22,4,1.06,4.86-.81a14,14,0,0,0,.72-2.88c.25-1.1.51-2.2.77-3.3.51-2.11,1-4.23,1.58-6.34q1.86-7.14,4-14.21a1.52,1.52,0,0,0-1.44-1.9c-1.24-.1-2.48-.22-3.72-.3a2.61,2.61,0,0,0-2.6.9,15.38,15.38,0,0,0-1.37,3.1L211.69,45l2.5-.66q-1.94-1.86-3.94-3.63c-1.18-1.05-2.53-2.6-4-3.16s-2.56.24-3.4,1.37c-1.12,1.52-2.21,3.07-3.32,4.6S201,46.55,202.1,45l2.22-3.07a7.81,7.81,0,0,1,1.1-1.54c.4-.31-.07,0,.06.12l.89.75c1.95,1.66,3.85,3.39,5.7,5.16a1.53,1.53,0,0,0,2.51-.66,39.32,39.32,0,0,0,2.09-5l.19-.46q-.33,0,.09,0a4.19,4.19,0,0,1,1.16.09l2.79.23-1.45-1.89q-2.19,7.17-4.07,14.44-1,3.75-1.86,7.52c-.26,1.1-.51,2.2-.76,3.3l-.21,1c.76-.41.79-.6.1-.58a7.76,7.76,0,0,0-1.94-.26l-1-.13c-.55-.14-.47-.06.21.25a10.31,10.31,0,0,0,.33-1.87l.58-3.28c.38-2.13,1.13-4.58-.15-6.56-1-1.61-3.11-2.6-4.52-3.84a32.78,32.78,0,0,1-4.71-5.07c-1.15-1.52-3.75,0-2.59,1.52Z" transform="translate(-81.81 -7.18)"/><path d="M122.92,37.6c.34-.29,1,.21,1.18.44a3.56,3.56,0,0,1,.48,2.33c0,2-.26,3.92-.39,5.87-.1,1.5.28,3,1.9,3.53s3.84.25,5.6.31L130.24,49c.21,1.2.69,5.41-1.74,4.73a1.51,1.51,0,0,0-1.9,1.44,102.47,102.47,0,0,0,0,14.66,50.61,50.61,0,0,1,.5,6.25,2.63,2.63,0,0,1-.46,1.67c-.6.58-1.38-.07-1.72-.63a5.72,5.72,0,0,1-.5-2.89c0-1.12,0-2.24,0-3.37V63.43c0-1.87.54-4.82-.9-6.32a3.27,3.27,0,0,0-2.09-.93c-.73-.07-1.67.18-2.29-.23l.69.9c-.37-1.2-.93-2.7-.51-4a1.47,1.47,0,0,1,1.82-1.12,1.51,1.51,0,0,0,1.9-1.44l-1-14c-.14-1.91-3.14-1.93-3,0l1,14,1.9-1.45a4.31,4.31,0,0,0-5,2c-1.24,1.94-.81,4.52-.11,6.58A2.46,2.46,0,0,0,119,59.07c.59.1,2.14-.18,2.38.34a5.42,5.42,0,0,1,0,1.8v6.18c0,2.65-.17,5.37,0,8,.17,2.12,1,4.23,3,5.17a3.75,3.75,0,0,0,4.84-1.46c1-1.63.83-3.62.63-5.42a103.55,103.55,0,0,1-.37-18.55l-1.9,1.45a4.45,4.45,0,0,0,5-2.11c1.17-1.91.84-4.21.49-6.31a1.52,1.52,0,0,0-1.45-1.1l-3.32-.1c-.19,0-1.35-.14-1.22.08-.12-.21,0-.82.06-1.07a44.24,44.24,0,0,0,.34-6.6,5.15,5.15,0,0,0-2.32-4.27,3.71,3.71,0,0,0-4.43.36c-1.47,1.25.66,3.36,2.12,2.12Z" transform="translate(-81.81 -7.18)"/><path d="M103,37.48c-4-.77-9.42-1.11-11.22,3.48C90.15,45.05,94,48.25,97.3,49.8c1.63.77,3.56,1.48,4.69,3,1.63,2.12-1.21,2.87-2.83,3.21a15.38,15.38,0,0,1-7-.21c-2-.51-4.14-1.13-5.81.44s-2.39,4-3.07,6A29.53,29.53,0,0,0,81.87,69c-.16,1.87-.12,4,1.24,5.43s3.59,1.8,5.48,2a21.59,21.59,0,0,0,20.53-9.52,22,22,0,0,0,3.4-12.72A15.61,15.61,0,0,0,111,47.53c-1.21-2.15-3.51-2.4-5.19-3.94l-.67,2.51a8.36,8.36,0,0,0,5.92-10,1.5,1.5,0,0,0-1.45-1.1,32.66,32.66,0,0,0-7.6,1.34c-1.84.57-1.06,3.46.79,2.9A28.77,28.77,0,0,1,109.61,38l-1.44-1.1a5.33,5.33,0,0,1-3.82,6.32,1.51,1.51,0,0,0-.67,2.5c1.23,1.12,2.89,1.51,4.12,2.57s1.5,3.44,1.65,5a19,19,0,0,1-1.72,10A18.46,18.46,0,0,1,91.25,73.59a14.67,14.67,0,0,1-5-.69c-1.78-.66-1.5-2.59-1.35-4.16a25.8,25.8,0,0,1,1.35-5.95A24.61,24.61,0,0,1,87.4,60c.4-.79.74-1.87,1.76-1.89a10.57,10.57,0,0,1,2.63.61,21.05,21.05,0,0,0,3.07.46,18.22,18.22,0,0,0,6-.58,6.82,6.82,0,0,0,4-2.44,4.3,4.3,0,0,0-.17-4.83c-2.17-3.27-6.33-3.54-9-6.13-1.35-1.31-1.85-3.16-.15-4.43,1.9-1.41,4.52-.85,6.64-.44,1.89.36,2.7-2.53.8-2.89Z" transform="translate(-81.81 -7.18)"/></g></svg>